<svg xmlns="http://www.w3.org/2000/svg" viewBox="101.2 101.5 797.73 202.5" class="sc-czurPZ eDbynV" fill="#000">
    <path
        d="M202.4 101.5c-55.8 0-101.2 45.4-101.2 101.2 0 55.8 45.4 101.2 101.2 101.2s101.2-45.4 101.2-101.2c0-55.8-45.4-101.2-101.2-101.2zm0 8.7c7.8 0 15.4 1 22.7 2.8-2.8 24.1-10.6 51.3-22.7 51.3s-19.9-27.2-22.7-51.3c7.2-1.9 14.8-2.8 22.7-2.8zm-40.3 9.1c5.7 23.2 23.3 50.6 40.2 50.7 17 0 34.5-27.4 40.2-50.7 4.6 2.2 9 4.8 13.2 7.8-8.9 21-28.6 50.7-53.4 51.4-24.7-.7-44.5-30.4-53.4-51.4 4.2-2.9 8.6-5.5 13.2-7.8zm40.3 176c-7.8 0-15.4-1-22.7-2.8 2.8-24.1 10.6-51.3 22.7-51.3s19.9 27.2 22.7 51.3c-7.3 1.9-14.9 2.8-22.7 2.8zm40.2-9.2c-5.7-23.2-23.3-50.6-40.2-50.7-17 0-34.5 27.4-40.2 50.7-4.6-2.2-9-4.8-13.2-7.8 8.9-21 28.6-50.7 53.4-51.4 24.7.7 44.5 30.4 53.4 51.4-4.2 3-8.6 5.6-13.2 7.8zm27.7-20.5c-12.4-18.5-39.2-44.4-67.9-44.4-28.7 0-55.5 25.9-67.9 44.4-3.4-3.7-6.5-7.6-9.3-11.8 13.1-16.9 40.6-41.2 77.2-41.2 36.5 0 64.1 24.3 77.2 41.2-2.8 4.2-5.9 8.1-9.3 11.8zm24.6-62.9c0 11.7-2.2 22.9-6.2 33.2-20.9-17.4-53-28.9-86.4-28.9s-65.5 11.5-86.4 29c-4-10.3-6.2-21.5-6.2-33.2 0-11.7 2.2-22.9 6.2-33.2 20.9 17.4 53 29 86.4 29 33.4 0 65.5-11.5 86.4-28.9 4 10.1 6.2 21.3 6.2 33zm-92.5-9.9c-36.5 0-64.1-24.3-77.2-41.2 2.8-4.2 5.9-8.1 9.3-11.8 12.4 18.5 39.2 44.4 67.9 44.4 28.7 0 55.5-25.9 67.9-44.4 3.4 3.7 6.5 7.6 9.2 11.8-13.1 16.9-40.6 41.2-77.1 41.2zm562-17.4c-1.2 2.3-6.5 9.6-17.5 9.6-8.7 0-14.2-4.6-16.6-11.8 1.2.1 2.5.2 3.7.2 17.1 0 28.4-7.1 28.4-17.3 0-9.2-9.2-15.7-21.8-15.7-18.7 0-30.6 11.9-30.6 29.7 0 17.3 11.1 28.5 27.2 28.5 19.5 0 27.5-16.5 28.3-23 .2-.8-.6-1.2-1.1-.2zm-35.5-11.2c0-9 3-20.5 10.2-20.5 2.9 0 4.8 2.9 4.7 9 0 10.2-5.1 16.6-14.1 18.5-.4-2.1-.8-4.5-.8-7zm-396.3-36.8c-.6-.6-.7-1.9.8-2H360.5c1 0 1 .2 1.4.5 1.6.8 11 21.1 7 40.1 8.9-16.3 16.6-27.2 16.7-27.6.6-.8 1.1-1 1.7-.7.8.4.7 1.1.6 1.4-3.1 15.1-.8 31.1 4 39.3 4.6 7.7 13.9 9.9 17.2 2 8.3-19.2-12.5-42.3-16.6-46.6-1.9-2-1.3-3.6-.8-4.2 9-8.6 21.1-5.5 25.2 1.2 4 6.6 7.7 16.9 2.6 35-2.8 10-9.4 29.6-31.7 33-4.3.6-5.8-1-7.3-3.1-3-4.2-6.7-13.2-5.2-24.8.7-5.4 1.9-8.9 3.5-13.6l-.8 1.4c-6.9 12.8-14.2 27.3-21.3 37.9l-.8 1.2c-.8 1.2-1.7 1.4-2.2 1.1-.5-.2-.4-1.1-.1-2.3 8.3-33.6-14.1-61-21-69.2zM621.7 196c2.3-4 3.4-7.8 3.5-12.2v-26.1c0-6.5-1.8-9-3-10.5-.2-.2-.2-.7.1-.8h.1L642 141c1.1-.4 1.4-.4 1.8-.4s.6.2.6.6c0 2-.2 7-.4 12.3 3.4-8.2 9.5-12.9 16.6-12.9 6.9 0 11.7 4.5 13.2 12.4l.1.6h.2c3-8.4 9.2-13.1 16.4-13.1 8.6 0 13.6 6.7 13.9 18.2v24.4c0 4.5 1.1 9.3 3 12.9.1.4 0 .7-.2.7H682.8c-.4 0-.6-.4-.4-.7 1.9-3.9 2.9-7.7 3-12v-24c0-4.9-1.9-7.8-4.9-7.8-3.6 0-6 3.9-6.1 10.8v20.2c0 4.5 1.3 9.2 3 12.9.1.4 0 .7-.2.7H652.8c-.4 0-.6-.4-.4-.7 1.8-4 2.9-7.7 3-12v-24c0-4.9-1.9-7.8-4.9-7.8-3.6 0-6 3.9-6.1 10.8V183.3c0 4.5 1.2 9.3 3 12.9.2.4 0 .7-.2.7h-25c-.5-.2-.6-.6-.5-.9zm-86.6 2.7c15.7 0 23.6-10.8 26.5-18.4 3 10.1 11.4 18.4 28.5 18.4 16.7 0 28.9-12.9 28.9-30.6 0-14.9-9.9-27.7-29.5-27.7-17 0-29.5 12.8-29.3 30.2 0 2.3.2 4.5.6 6.6-2.3 3-7.5 7.9-16.3 7.9-11.8 0-17.8-8.9-17.8-21.2 0-8.6 2.9-20.2 9.3-20.2 5.2 0 6.9 8.1 4.8 18.2-.4 1.4.1 1.7.8 1.4l15.2-4.5.2-.1c2-.8 2.2-2.8.8-5.2-5.3-9.3-12.6-13.2-21.7-13.2-15.3 0-28.4 10.7-28.4 29.7.2 17.3 11.1 28.7 27.4 28.7zm53.1-55H588.8c5.5.2 8.2 9.2 9.2 25.5.8 16.9-1.2 26-7 26.4-5.9.2-8.7-8.7-9.6-25.7-.9-16.8 1-25.8 6.8-26.2zm-109.6 32c.1-1-.7-1.3-1.2-.4-1.2 2.3-6.5 9.6-17.5 9.6-8.7 0-14.2-4.6-16.6-11.8 1.1.1 2.3.2 3.7.2 17.1 0 28.4-7.1 28.4-17.3 0-9.2-9-15.7-21.8-15.7-18.7 0-30.6 11.9-30.7 29.7 0 17.3 11.2 28.5 27.3 28.5 19.6.2 27.6-16.3 28.4-22.8zm-36.7-11.5c0-9 3-20.5 10.2-20.5 2.9 0 4.8 2.9 4.8 9 0 10.2-5.2 16.6-14.2 18.5-.5-2.1-.8-4.5-.8-7zm35-35.3c-.2-.2-.2-.7.1-.8h.1l22.9-6.6c.8-.4 1.3-.5 1.6-.5.4 0 .6.2.6.6 0 .6-.4 3-.4 6.9V183c0 4.5 1.6 9.2 3.5 12.9.2.4 0 .7-.2.7H479.7c-.4 0-.6-.4-.4-.7 2-4 3.3-7.7 3.5-12v-40.5c0-5.1-1.7-9.2-4.5-12.6l-.4-.5-1-1.4zm420.9 128c-1.2 2.3-6.5 9.6-17.5 9.6-8.7 0-14.2-4.7-16.6-11.9 1.1.1 2.3.2 3.7.2 17.1 0 28.4-7.1 28.4-17.3 0-9.2-9-15.7-21.8-15.7-18.5 0-30.6 11.9-30.7 29.9 0 17.3 11.2 28.5 27.3 28.5 19.5 0 27.5-16.5 28.3-23 .2-.9-.7-1.3-1.1-.3zm-35.6-11.3c0-9 3-20.5 10.2-20.5 3 0 4.8 2.9 4.7 9 0 10.2-5.1 16.5-14.1 18.5-.4-2.1-.8-4.5-.8-7zM841 277.3c.1.4 0 .7-.2.7h-25.3c-.4 0-.6-.4-.4-.7 2-4 3.3-7.7 3.4-12v-40.4c0-5.1-1.7-9.2-4.5-12.6l-.4-.5-1.1-1.3c-.2-.2-.2-.7.1-.8h.1l22.9-6.6c.8-.4 1.3-.5 1.6-.5.4 0 .6.2.6.6 0 .6-.4 3-.4 6.9v54.6c.1 4.1 1.7 8.8 3.6 12.6zm-359.4-52.9v.1l-1.8 4.2c-.1.2-.2.5-.6.5H467.9v34.7c0 5.2 2.3 7.5 6.6 7.5 2.6 0 4.6-.6 5.7-1.9.4-.4.5-.5.7-.5.5 0 .5.5.4 1.1-2.4 6.5-8.6 9.9-17.1 9.9-10.1 0-15.3-5.3-15.5-14.7v-36H441c-.4 0-.6-.2-.6-.5 0-.4.2-.7 1.1-1.3l.2-.1 24.1-16.1c1-.6 1.4-.8 1.8-.8.4 0 .6.2.6.6 0 .8-.4 5.7-.4 12.4v.6H481c.5-.2.8-.1.6.3zm115.1 32.5c-1.2 2.3-6.5 9.6-17.5 9.6-8.7 0-14.2-4.7-16.6-11.9 1.1.1 2.3.2 3.7.2 17.1 0 28.4-7.1 28.4-17.3 0-9.2-9.2-15.7-21.8-15.7-18.7 0-30.6 11.9-30.6 29.9 0 17.3 11.1 28.5 27.2 28.5 19.5 0 27.5-16.5 28.3-23 .2-.9-.7-1.3-1.1-.3zm-35.6-11.3c0-9 3-20.5 10.2-20.5 2.9 0 4.7 2.9 4.8 9 0 10.2-5.2 16.5-14.2 18.5-.4-2.1-.8-4.5-.8-7zm-20.6 31.8c.1.4 0 .7-.2.7H514.9c-.4 0-.6-.4-.4-.7 2-4 3.3-7.7 3.4-12V242c0-5.5-1.9-8.4-5.5-8.4-4.2 0-6.6 3.9-6.7 11.4v19.6c0 4.5 1.6 9.2 3.5 12.9.1.4 0 .7-.2.7h-25.3c-.4 0-.6-.4-.4-.7 2-4 3.3-7.7 3.4-12v-40.4c0-5.1-1.7-9.2-4.5-12.6l-.4-.5-1.1-1.3c-.2-.2-.2-.7.1-.8h.1l22.9-6.6c1-.5 1.3-.6 1.6-.6.4 0 .6.2.6.6 0 .6-.4 3-.4 6.9V234c3.5-7.8 9.4-12.2 17-12.2 9.2 0 14.3 6.7 14.5 18.8v23.8c-.1 4.5 1.5 9.2 3.4 13zm96.7-69.8c-2.3 2.4-4.1 5.1-4.2 10v45.8c0 19.8-9.6 28.8-30.5 28.8-1.1 0-2-.1-2.5-.2-.8-.2-1-1-.2-1.4 8.3-3.6 13.1-11.3 13.4-21.3v-50.9c0-5.3-1.9-8.2-4.2-10.7-.2-.2-.4-.8.1-1h27.8v.1c.6-.1.6.5.3.8zm59.5 69.8c.1.4 0 .7-.2.7H675.1c-.4 0-.6-.1-.6-.5V267.3c-3.4 8.2-9.5 12.9-17.2 12.9-9.2 0-14.3-6.7-14.5-18.7v-22.3c0-6.5-1.7-9.2-3-10.5-.2-.2-.2-.7.1-.8h.1l19.6-5.4c1.1-.4 1.4-.4 1.8-.4.4 0 .6.1.6.5v37.8c0 5.5 1.9 8.4 5.5 8.4 4.2 0 6.6-3.9 6.7-11.4v-18.1c0-6.5-1.7-9.2-3-10.5-.2-.2-.2-.7.1-.8h.1l19.6-5.4c.7-.6 1.1-.7 1.4-.7.4 0 .6.1.6.5v42.1c.3 4.4 1.8 9.1 3.7 12.9zm60.3 0c.1.4 0 .7-.2.7h-25.3c-.4 0-.6-.4-.4-.7 2-4 3.3-7.7 3.4-12V242c0-5.5-1.9-8.4-5.5-8.4-4.2 0-6.6 3.9-6.7 11.4v19.6c0 4.5 1.3 9.3 3.5 12.9.1.4 0 .7-.2.7h-25.3c-.5 0-.6-.4-.5-.7 2.3-4 3.4-7.8 3.5-12.2v-26.1c0-6.6-1.8-9-3-10.5-.2-.2-.2-.7.1-.8h.1l19.6-5.4c1.1-.4 1.4-.4 1.8-.4.4 0 .6.2.6.6 0 2-.2 7-.4 12.3 3-8.3 9.2-13 17-13 9 0 14.2 6.7 14.5 18.8v23.8c-.1 4.3 1.4 9 3.4 12.8zm-356.1-55.7c-17 0-29.5 12.6-29.5 30 0 5.1 1 10.1 3.3 14.6-2.5 3-5.3 4.6-8.6 4.6-4.2 0-6.6-2.5-6.6-7v-34.7h12.4c.2 0 .2-.2.5-.6l2-4.1v-.1c0-.4-.4-.5-.7-.5h-14.3v-.6c.1-6.7.5-11.6.5-12.4 0-.4-.2-.6-.6-.6-.4 0-.8.2-1.6.7l-24.1 16.1-.2.1c-.8.6-1.1 1-1.1 1.3 0 .2.2.5.6.5h7.6v36c.2 9.4 6.1 14.7 16.4 14.7 8.7 0 15.7-4 19.4-11.2 4.5 6.7 12.4 11.4 25.3 11.4 16.7 0 28.9-12.9 28.9-30.6-.1-14.8-9.9-27.6-29.6-27.6zm1.5 55.3c-5.9.4-8.7-8.7-9.6-25.7-.8-16.9 1.1-25.9 6.9-26.3H400.3c5.5.2 8.3 9.2 9.2 25.5.7 17-1.3 26.1-7.1 26.5zm396.7-6h-19.8c-4.3-.1-6.7-1.6-6.7-4.2 0-1.3.4-2.4 1.1-3.5 3.3 1.1 7.1 1.6 11.7 1.6 14.7 0 25.3-9.6 25.3-22.5 0-7.6-4.1-14.3-12.2-17.9h14c.4 0 .5-.2.5-.6 0-4.1-5.3-9.4-7.3-9.4-.2 0-.6.1-1.2.5-2.5 1.4-5.8 4.2-9 8.6-3-.8-6.5-1.3-10.5-1.3-14.8 0-25.8 9.3-25.8 22 0 7.3 3.4 14.8 12.4 18.5-7.3 2-12.2 7.1-12.2 12.5 0 4.5 2.4 7.7 6.9 9.6-4.3 3.3-6.5 7-6.5 10.2 0 5.4 6 8.9 14.2 8.9 14.1 0 39.7-10.6 39.7-23.1 0-6.4-5.2-9.9-14.6-9.9zm-15.3-45.9h.4c4.3.2 6.9 6.5 7.6 17.9.7 11.6-1 18.3-5.8 18.5-4.3.1-7.3-5.5-8.1-18.1-.6-11.8 1.5-18.1 5.9-18.3zm4.6 71.4c-7.5 0-17-2-21.1-11.4 2.4.8 5.4 1.3 8.9 1.3h16.4c4.8 0 7 1.6 7 4.3 0 3.4-4.6 5.8-11.2 5.8z">
    </path>
</svg>